<svg width="20" height="20" viewBox="0 0 20 20" fill="none" xmlns="http://www.w3.org/2000/svg">
<path fill-rule="evenodd" clip-rule="evenodd" d="M19.3305 8.52203H18.6177V6.98115C18.6177 6.46899 18.3451 6.04784 18 6.00919V6.00001L17.9695 6.00679C17.9624 6.00647 17.9553 6.0063 17.9482 6.0063H17.257C17.2528 6.0063 17.2487 6.00671 17.2446 6.00713C17.2416 6.00743 17.2385 6.00774 17.2354 6.00787V5.97486C17.2354 5.43731 16.9351 5.00001 16.5659 5.00001L15.6695 4.99982C15.3003 4.99982 15 5.43711 15 5.97466V8.99982H5V5.97466C5 5.43711 4.69965 4.99982 4.33045 4.99982L3.43413 5.00001C3.06492 5.00001 2.76458 5.43731 2.76458 5.97486V6.00787C2.76149 6.00774 2.75843 6.00743 2.75537 6.00713C2.75127 6.00671 2.74716 6.0063 2.74298 6.0063H2.05184C2.0447 6.0063 2.03758 6.00647 2.0305 6.00679L2 6.00001V6.00919C1.65493 6.04784 1.38229 6.46899 1.38229 6.98115V8.52203H0.669546C0.300346 8.52203 0 8.95932 0 9.49687V10.5032C0 11.0407 0.300346 11.478 0.669546 11.478H1.38229V13.0189C1.38229 13.531 1.65493 13.9522 2 13.9908V14L2.0305 13.9932C2.03758 13.9936 2.0447 13.9937 2.05184 13.9937H2.74298C2.74716 13.9937 2.75127 13.9933 2.75537 13.9929L2.75539 13.9929C2.75844 13.9926 2.7615 13.9923 2.76458 13.9922V14.0252C2.76458 14.5627 3.06492 15 3.43413 15L4.33045 14.9998C4.69965 14.9998 5 14.5625 5 14.025V10.9998H15V14.025C15 14.5625 15.3003 14.9998 15.6695 14.9998L16.5659 15C16.9351 15 17.2354 14.5627 17.2354 14.0252V13.9922L17.2406 13.9925L17.2446 13.9929L17.2516 13.9935L17.257 13.9937H17.9482C17.9553 13.9937 17.9624 13.9936 17.9695 13.9932L18 14V13.9908C18.3451 13.9522 18.6177 13.531 18.6177 13.0189V11.478H19.3305C19.6997 11.478 20 11.0407 20 10.5032V9.49687C20 8.95932 19.6997 8.52203 19.3305 8.52203Z" fill="#373B49"/>
<rect x="5" y="9" width="10" height="2" fill="#646A79"/>
</svg>
