<svg width="24" height="24" viewBox="0 0 24 24" fill="none" xmlns="http://www.w3.org/2000/svg">
<path fill-rule="evenodd" clip-rule="evenodd" d="M6.55866 18.7326L12.6456 12.6456C13.0022 12.2891 13.0022 11.7109 12.6456 11.3544L6.55866 5.26742C6.2021 4.91086 5.62399 4.91086 5.26742 5.26742C4.91086 5.62399 4.91086 6.2021 5.26742 6.55866L10.7088 12L5.26742 17.4413C4.91086 17.7979 4.91086 18.376 5.26742 18.7326C5.62399 19.0891 6.2021 19.0891 6.55866 18.7326ZM12.6456 18.7326L18.7326 12.6456C19.0891 12.2891 19.0891 11.7109 18.7326 11.3544L12.6456 5.26742C12.2891 4.91086 11.7109 4.91086 11.3544 5.26742C10.9978 5.62399 10.9978 6.2021 11.3544 6.55866L16.7957 12L11.3544 17.4413C10.9978 17.7979 10.9978 18.376 11.3544 18.7326C11.7109 19.0891 12.2891 19.0891 12.6456 18.7326Z" fill="#E3FF39"/>
</svg>
