<svg width="20" height="20" viewBox="0 0 20 20" fill="none" xmlns="http://www.w3.org/2000/svg">
<g clip-path="url(#clip0)">
<path d="M6.35547 8.36182H13.6443V11.6597H6.35547V8.36182Z" fill="#6C7383"/>
<path d="M6.35547 10.2766H13.6443V11.6597H6.35547V10.2766Z" fill="#6C7383"/>
<path d="M3.62976 6.93222L4.07318 10.5704L3.62976 13.0894C3.62976 13.5907 3.42651 14.0442 3.09799 14.3727C2.76978 14.7009 2.31598 14.9042 1.81473 14.9042C0.812683 14.9042 0 14.0915 0 13.0894V6.93222C0 6.26175 0.363617 5.67642 0.904083 5.36209C1.17188 5.20615 1.48285 5.11719 1.81473 5.11719C2.81708 5.11719 3.62976 5.92987 3.62976 6.93222Z" fill="#DADCE7"/>
<path d="M3.62997 6.93222V12.2127C3.36264 12.3686 3.05121 12.4576 2.71933 12.4576C1.71698 12.4576 0.904297 11.6449 0.904297 10.6425V5.36209C1.17209 5.20615 1.48306 5.11719 1.81494 5.11719C2.81729 5.11719 3.62997 5.92987 3.62997 6.93222Z" fill="#DADCE7"/>
<path d="M7.26013 6.93234V13.0896C7.26013 13.5908 7.05689 14.0443 6.72836 14.3728C6.40015 14.7009 5.9462 14.9043 5.44495 14.9043C4.44305 14.9043 3.63037 14.0916 3.63037 13.0896V6.93234C3.63037 6.26172 3.99399 5.67639 4.53445 5.36221C4.80209 5.20627 5.11322 5.11731 5.44495 5.11731C6.44745 5.11731 7.26013 5.92999 7.26013 6.93234Z" fill="#DADCE7"/>
<path d="M7.25986 6.93234V12.2128C6.99252 12.3687 6.68109 12.4577 6.34921 12.4577C5.34686 12.4577 4.53418 11.645 4.53418 10.6427V5.36221C4.80182 5.20627 5.11295 5.11731 5.44467 5.11731C6.44717 5.11731 7.25986 5.92999 7.25986 6.93234Z" fill="#DADCE7"/>
<path d="M16.3701 6.93234L16.7148 10.7477L16.3701 13.0896C16.3701 13.5908 16.1669 14.0443 15.8382 14.3728C15.5102 14.7009 15.0562 14.9043 14.555 14.9043C13.5529 14.9043 12.7402 14.0916 12.7402 13.0896V6.93234C12.7402 6.26172 13.104 5.67639 13.6443 5.36221C13.9121 5.20627 14.2231 5.11731 14.555 5.11731C15.5575 5.11731 16.3701 5.92999 16.3701 6.93234Z" fill="#DADCE7"/>
<path d="M16.3699 6.93234V12.2128C16.1025 12.3687 15.7911 12.4577 15.4592 12.4577C14.4567 12.4577 13.644 11.645 13.644 10.6427V5.36221C13.9118 5.20627 14.2228 5.11731 14.5547 5.11731C15.5572 5.11731 16.3699 5.92999 16.3699 6.93234Z" fill="#DADCE7"/>
<path d="M19.9999 6.93234V13.0896C19.9999 13.5908 19.7966 14.0443 19.4681 14.3728C19.1399 14.7009 18.6859 14.9043 18.1848 14.9043C17.1828 14.9043 16.3701 14.0916 16.3701 13.0896V6.93234C16.3701 6.26172 16.7337 5.67639 17.2742 5.36221C17.5418 5.20627 17.853 5.11731 18.1848 5.11731C19.1872 5.11731 19.9999 5.92999 19.9999 6.93234Z" fill="#DADCE7"/>
<path d="M20.0001 6.93234V12.2128C19.7328 12.3687 19.4213 12.4577 19.0894 12.4577C18.0871 12.4577 17.2744 11.645 17.2744 10.6427V5.36221C17.5421 5.20627 17.8532 5.11731 18.1851 5.11731C19.1874 5.11731 20.0001 5.92999 20.0001 6.93234Z" fill="#DADCE7"/>
</g>
<defs>
<clipPath id="clip0">
<rect width="20" height="20" fill="white"/>
</clipPath>
</defs>
</svg>
