<svg width="160" height="160" viewBox="0 0 160 160" fill="none" xmlns="http://www.w3.org/2000/svg">
<g clip-path="url(#clip0)">
<path d="M159.917 153.341C159.917 155.338 159.251 157.003 157.919 158.335C156.587 159.334 155.256 160 153.257 160H6.74325C5.07847 160 3.41337 159.334 2.08129 158.335C0.749216 157.003 0.0834961 155.338 0.0834961 153.341V55.7752H159.917V153.341Z" fill="#AAABC3"/>
<path d="M157.919 158.335C156.587 159.334 155.255 160 153.257 160H6.74301C5.07823 160 3.41313 159.334 2.08105 158.335L79.9999 91.405L157.919 158.335Z" fill="#80819C"/>
<path d="M159.916 55.7751L137.273 72.0915L84.3281 110.052C81.6643 112.05 78.0014 112.05 75.3376 110.052L22.7256 72.0915L0.0825195 55.7751L22.7256 39.4588L72.0077 4.16223L75.6706 1.49839C78.3344 -0.499404 81.9973 -0.499404 84.6611 1.49839L88.324 4.16223L111.966 21.1446L123.621 29.4691L137.273 39.4588L159.916 55.7751Z" fill="#80819C"/>
<path d="M137.274 24.8075V72.0915L84.3286 110.052C81.6648 112.05 78.0019 112.05 75.338 110.052L22.7261 72.0915V10.822C22.7261 7.15909 25.7229 4.16223 29.3858 4.16223H116.295L137.274 24.8075Z" fill="#3F4052"/>
<path d="M116.628 19.4798C116.628 22.4767 118.959 24.8075 121.956 24.8075H137.273L116.628 4.16223L116.628 19.4798Z" fill="#DADCE7"/>
<path d="M99.6463 71.0928H104.974C103.309 74.7557 100.645 77.4195 96.9822 79.4173C92.9862 81.7482 87.9916 82.7472 81.9979 82.7472C76.3372 82.7472 71.3422 81.7482 67.3463 79.7504C63.3504 77.7526 60.0205 75.0884 58.0227 71.0928C56.0249 67.4299 55.0259 63.101 55.0259 58.7724C55.0259 53.7777 56.0249 49.4488 58.3557 45.1199C60.6866 40.7909 63.6834 37.7941 67.6793 35.7963C71.6752 33.7985 76.3369 32.7994 81.3319 32.7994C85.6608 32.7994 89.6564 33.7985 92.9862 35.4632C96.3161 37.128 98.98 39.4592 100.645 42.789C102.31 45.7859 103.309 49.4488 103.309 53.1117C103.309 57.4406 101.977 61.4362 99.313 65.0991C95.9831 69.7611 91.6542 71.7588 86.3265 71.7588C84.9944 71.7588 83.6627 71.4258 82.9966 71.0928C82.3306 70.4268 81.6646 69.7607 81.6646 68.762C79.6668 70.7598 77.3356 71.7588 74.6718 71.7588C71.6749 71.7588 69.3441 70.7598 67.679 68.762C65.6812 66.7642 64.6822 64.1 64.6822 60.7702C64.6822 56.7743 65.6812 53.1114 68.012 49.4485C70.6759 45.4526 74.3388 43.4548 78.6677 43.4548C81.6645 43.4548 83.9954 44.7868 85.6605 47.1176L86.3265 44.1208H93.3193L89.3234 62.768C88.9903 64.1 88.9903 64.7658 88.9903 65.0988C88.9903 65.4318 88.9903 65.7648 89.3234 66.0978C89.6564 66.4309 89.6564 66.4309 89.9894 66.4309C90.6554 66.4309 91.9872 65.7648 93.3193 64.7661C94.984 63.434 96.6491 61.7692 97.6482 59.4384C98.6473 57.1076 99.313 54.7765 99.313 52.4456C99.313 48.1167 97.6482 44.4538 94.651 41.79C91.6542 38.7931 87.3252 37.461 81.6646 37.461C77.0026 37.461 73.007 38.4601 69.6771 40.4579C66.3473 42.4557 64.0164 45.1199 62.3513 48.4497C60.6863 51.7796 60.0205 55.4425 60.0205 59.4384C60.0205 63.1013 61.0196 66.4312 62.6844 69.428C64.6822 72.4249 67.0133 74.7557 70.3432 76.0878C73.673 77.4199 77.3359 78.0856 81.6649 78.0856C85.6608 78.0856 89.3237 77.4195 92.3205 76.4208C95.3174 75.0884 97.6482 73.4236 99.6463 71.0928ZM71.3422 60.4371C71.3422 62.768 71.6752 64.1 72.6743 65.4318C73.6734 66.4309 74.6721 67.0966 76.0042 67.0966C77.0032 67.0966 78.002 66.7636 78.668 66.4305C79.334 66.0975 80.0001 65.4315 80.6658 64.7658C81.6649 63.7667 82.3309 62.1019 82.9966 60.1038C83.6627 58.106 83.9957 56.1079 83.9957 54.4431C83.9957 52.4453 83.6627 51.1132 82.6636 49.7812C81.6645 48.7821 80.6658 48.1164 79.3337 48.1164C78.0017 48.1164 76.3369 48.7824 75.3378 49.7812C74.0057 50.7802 73.007 52.445 72.341 54.7758C71.6752 56.7743 71.3422 58.7721 71.3422 60.4371Z" fill="#DADCE7"/>
</g>
<defs>
<clipPath id="clip0">
<rect width="160" height="160" fill="white"/>
</clipPath>
</defs>
</svg>
