<svg width="19" height="18" viewBox="0 0 19 18" fill="none" xmlns="http://www.w3.org/2000/svg">
<path fill-rule="evenodd" clip-rule="evenodd" d="M18.14 9.20468C18.14 8.5665 18.0827 7.95286 17.9764 7.36377H9.5V10.8451H14.3436C14.135 11.9701 13.5009 12.9233 12.5477 13.5615V15.8197H15.4564C17.1582 14.2529 18.14 11.9456 18.14 9.20468Z" fill="#4285F4"/>
<path fill-rule="evenodd" clip-rule="evenodd" d="M9.5 18C11.93 18 13.9673 17.1941 15.4564 15.8195L12.5477 13.5613C11.7418 14.1013 10.7109 14.4204 9.5 14.4204C7.15591 14.4204 5.17182 12.8372 4.46409 10.71H1.45728V13.0418C2.93818 15.9831 5.98182 18 9.5 18Z" fill="#34A853"/>
<path fill-rule="evenodd" clip-rule="evenodd" d="M4.46409 10.7099C4.28409 10.1699 4.18182 9.59313 4.18182 8.99995C4.18182 8.40677 4.28409 7.82995 4.46409 7.28995V4.95813H1.45727C0.847727 6.17313 0.5 7.54768 0.5 8.99995C0.5 10.4522 0.847727 11.8268 1.45727 13.0418L4.46409 10.7099Z" fill="#FBBC05"/>
<path fill-rule="evenodd" clip-rule="evenodd" d="M9.5 3.57955C10.8214 3.57955 12.0077 4.03364 12.9405 4.92545L15.5218 2.34409C13.9632 0.891818 11.9259 0 9.5 0C5.98182 0 2.93818 2.01682 1.45728 4.95818L4.46409 7.29C5.17182 5.16273 7.15591 3.57955 9.5 3.57955Z" fill="#EA4335"/>
</svg>
