<svg width="20" height="20" viewBox="0 0 20 20" fill="none" xmlns="http://www.w3.org/2000/svg">
<path d="M16.3694 10.1689C16.0466 9.66431 16.0286 9.02283 16.3282 8.50388L17.5453 6.39587L17.0045 5.07095L15.4239 5.17105L14.6179 6.56708C14.2456 7.21207 13.4576 7.47833 12.7643 7.20673C11.9134 6.87363 10.9875 6.69067 10.0186 6.69067C9.56586 6.69067 9.12198 6.7308 8.69092 6.80756C8.2005 6.89484 7.7261 7.02957 7.27322 7.20673C6.57956 7.47833 5.79205 7.21207 5.41974 6.56708L4.61377 5.17105L3.21088 5.43015L2.49234 6.39587L3.70938 8.50388C4.00861 9.02283 3.99106 9.66431 3.66772 10.1689C2.91776 11.3403 2.48242 12.733 2.48242 14.2273C2.48242 18.3893 5.8566 20 10.0186 20C14.181 20 17.5552 18.3893 17.5552 14.2273C17.5552 12.733 17.1199 11.3403 16.3694 10.1689Z" fill="#373B49"/>
<path d="M10.0186 20C5.8566 20 2.48242 18.3893 2.48242 14.2273C2.48242 12.733 2.91776 11.3403 3.66772 10.1689C3.99106 9.66431 4.00861 9.02283 3.70938 8.50388L2.49234 6.39587L3.22385 4.67178L4.61377 5.17105L5.41974 6.56708C5.79205 7.21207 6.57956 7.47833 7.27322 7.20673C7.7261 7.02957 8.20004 6.89484 8.69046 6.80756V6.80832C6.34274 7.54196 1.05832 17.545 10.0186 20Z" fill="#373B49"/>
<path d="M17.5452 2.13211C16.7743 0.796967 15.394 0 13.8527 0H6.18473C4.64344 0 3.26252 0.796967 2.4921 2.13165C1.72138 3.4668 1.72138 5.06073 2.4921 6.39572L4.61369 5.1709C4.28577 4.60297 4.28577 3.92487 4.61369 3.35693C4.94144 2.78854 5.52906 2.44965 6.18473 2.44965H13.8233C14.4802 2.44965 15.0975 2.78976 15.425 3.35938C15.7517 3.92685 15.7512 4.60388 15.4238 5.1709L17.5452 6.39572C18.3161 5.06073 18.3161 3.4668 17.5452 2.13211Z" fill="#373B49"/>
<path d="M8.28461 0.000152588H6.18469C4.6434 0.000152588 3.26263 0.797119 2.49222 2.13181C1.72134 3.46695 1.72134 5.06088 2.49222 6.39603L4.61365 5.1712C4.28574 4.60327 4.28574 3.92502 4.61365 3.35709C4.94156 2.78885 5.52902 2.44995 6.18469 2.44995H8.36456C6.52893 2.11914 6.18469 0.000152588 8.28461 0.000152588Z" fill="#373B49"/>
<path d="M8.08956 13.4006L9.27318 11.9011C9.32455 11.8343 9.33044 11.7661 9.33044 11.7206C9.33044 11.4828 9.03377 11.25 8.81231 11.25C8.70369 11.25 8.62285 11.2932 8.55745 11.3861L7.15322 13.3213V11.5388C7.15322 11.3395 6.92643 11.25 6.70161 11.25C6.49335 11.25 6.25 11.3256 6.25 11.5388V15.9209C6.25 16.1238 6.48409 16.2165 6.70161 16.2165C6.92587 16.2165 7.15322 16.115 7.15322 15.9209V14.6062L7.49256 14.1736L8.72979 16.0724C8.79884 16.1869 8.91083 16.25 9.04527 16.25C9.31192 16.25 9.58333 16.0192 9.58333 15.7927C9.58333 15.7296 9.56649 15.6739 9.53365 15.6273L8.08956 13.4006Z" fill="#646A79"/>
<path d="M13.4419 13.5862H12.2479C12.0525 13.5862 11.9474 13.773 11.9474 13.9487C11.9474 14.1286 12.0505 14.3111 12.2479 14.3111H12.7971V14.6892C12.7971 15.1834 12.5487 15.4445 12.0795 15.4445C11.6078 15.4445 11.3689 15.1905 11.3689 14.6892V12.8108C11.3689 12.3095 11.6102 12.0555 12.0866 12.0555C12.6781 12.0555 12.777 12.4024 12.7971 12.7038C12.8036 12.8962 12.9682 12.9981 13.2735 12.9981C13.5675 12.9981 13.7498 12.9252 13.7498 12.5616C13.7498 11.7771 13.0671 11.25 12.0513 11.25C10.6288 11.25 10.4165 12.2278 10.4165 12.8108V14.6892C10.4165 15.6957 11.0071 16.25 12.0795 16.25C13.1565 16.25 13.7498 15.6957 13.7498 14.6892V13.8879C13.7495 13.7381 13.6438 13.5862 13.4419 13.5862Z" fill="#646A79"/>
</svg>
