<svg width="136" height="136" viewBox="0 0 136 136" fill="none" xmlns="http://www.w3.org/2000/svg">
<path fill-rule="evenodd" clip-rule="evenodd" d="M130.517 116.811L101.217 87.5118C115.837 66.4309 113.758 37.2724 94.9765 18.4908C73.8552 -2.63158 39.6103 -2.63158 18.489 18.4908C-2.63239 39.6121 -2.63239 73.856 18.489 94.9783C37.2715 113.76 66.4291 115.839 87.51 101.217L116.81 130.518C120.579 134.287 126.748 134.287 130.516 130.518C134.286 126.749 134.286 120.58 130.517 116.811Z" fill="#80819C"/>
<path fill-rule="evenodd" clip-rule="evenodd" d="M72.7299 40.739C71.6954 39.7045 70.0187 39.7045 68.9831 40.739L56.7353 52.9868L44.4865 40.739C43.452 39.7045 41.7742 39.7045 40.7397 40.739C39.7052 41.7735 39.7052 43.4512 40.7397 44.4857L52.9875 56.7346L40.7397 68.9824C39.7052 70.0169 39.7052 71.6947 40.7397 72.7291C41.2565 73.2469 41.935 73.5053 42.6126 73.5053C43.2912 73.5053 43.9687 73.2469 44.4865 72.7291L56.7343 60.4813L68.9821 72.7291C69.4999 73.2469 70.1785 73.5053 70.856 73.5053C71.5346 73.5053 72.2121 73.2469 72.7299 72.7291C73.7644 71.6947 73.7644 70.0169 72.7299 68.9824L60.4811 56.7346L72.7299 44.4857C73.7644 43.4512 73.7644 41.7735 72.7299 40.739Z" fill="#80819C"/>
<path fill-rule="evenodd" clip-rule="evenodd" d="M54.9781 20.5403C56.437 20.5403 57.6271 19.3502 57.6271 17.8903C57.6271 16.4314 56.437 15.2413 54.9781 15.2413C53.5182 15.2413 52.3281 16.4314 52.3281 17.8903C52.3281 19.3502 53.5182 20.5403 54.9781 20.5403Z" fill="#80819C"/>
<circle cx="57" cy="57" r="40" fill="#3F4052"/>
<path d="M70 44L57 57M44 70L57 57M57 57L44 44L70 70" stroke="#DADCE7" stroke-width="6" stroke-linecap="round" stroke-linejoin="round"/>
</svg>
