<svg width="20" height="18" viewBox="0 0 20 18" fill="none" xmlns="http://www.w3.org/2000/svg">
<g clip-path="url(#clip0)">
<path d="M10.664 2H2.33602C2.1504 2 2 1.77615 2 1.5C2 1.22385 2.15044 1 2.33602 1H10.664C10.8496 1 11 1.22385 11 1.5C11 1.77615 10.8496 2 10.664 2Z" fill="#646A79"/>
<path d="M17.7013 4.99994H10.2987C10.1337 4.99994 10 4.77608 10 4.49994C10 4.22379 10.1337 3.99994 10.2987 3.99994H17.7013C17.8663 3.99994 18 4.22379 18 4.49994C18 4.77608 17.8663 4.99994 17.7013 4.99994Z" fill="#646A79"/>
<path d="M11 0C10.4477 0 10 0.264749 10 0.59129V17H12V0.59129C12 0.264749 11.5523 0 11 0V0Z" fill="#373B49"/>
<path d="M12.34 17.9999H9.65997C9.29546 17.9999 9 17.723 9 17.3812V16.6187C9 16.2769 9.29546 15.9999 9.65997 15.9999H12.34C12.7045 15.9999 13 16.2769 13 16.6187V17.3812C13 17.723 12.7045 17.9999 12.34 17.9999Z" fill="#646A79"/>
<path d="M2 0C2.55231 0 3 0.264749 3 0.59129V17H1V0.59129C1 0.264749 1.44775 0 2 0V0Z" fill="#373B49"/>
<path d="M18 2.26807C17.4477 2.26807 17 2.53016 17 2.85342V16.829H19V2.85342C18.9999 2.53012 18.5523 2.26807 18 2.26807Z" fill="#373B49"/>
<path d="M19.34 18H16.66C16.2955 18 16 17.723 16 17.3813V16.6187C16 16.277 16.2955 16 16.66 16H19.34C19.7045 16 20 16.277 20 16.6187V17.3813C20 17.723 19.7045 18 19.34 18Z" fill="#646A79"/>
<path d="M0.659972 17.9999H3.34003C3.70454 17.9999 4 17.723 4 17.3812V16.6187C4 16.2769 3.70454 15.9999 3.34003 15.9999H0.659972C0.295456 15.9999 0 16.277 0 16.6187V17.3812C0 17.723 0.295456 17.9999 0.659972 17.9999Z" fill="#646A79"/>
</g>
<defs>
<clipPath id="clip0">
<rect width="20" height="18" fill="white"/>
</clipPath>
</defs>
</svg>
