<svg width="24" height="20" viewBox="0 0 24 20" fill="none" xmlns="http://www.w3.org/2000/svg">
<rect width="1.67954" height="4.19885" transform="matrix(-1 0 0 1 20.1548 14.3534)" fill="#6C7383"/>
<rect width="1.67954" height="5.03862" rx="0.83977" transform="matrix(4.37114e-08 1 1 -4.37114e-08 16.7954 13.5136)" fill="#6C7383"/>
<path d="M0.000227928 12.4325C0.0144339 12.3089 0.0356216 12.1862 0.0636663 12.0649C0.328867 10.8163 1.61464 6.67573 7.17865 3.93518L8.64893 5.40545C7.14155 6.09445 5.75376 7.01962 4.53791 8.146L0.000227928 12.4325Z" fill="#6C7383"/>
<path d="M10.5407 13.5135C9.7944 13.5135 9.18938 12.9085 9.18938 12.1621C9.18938 11.4158 9.7944 10.8108 10.5407 10.8108C11.2871 10.8108 11.8921 11.4158 11.8921 12.1621C11.8921 12.9085 11.2871 13.5135 10.5407 13.5135Z" fill="#6C7383"/>
<path d="M4.48546 1.68717L9.68636 6.88807C9.89743 7.09914 10.2397 7.09914 10.4508 6.88807L11.2152 6.12364C11.4263 5.91257 11.4263 5.57027 11.2152 5.3592L6.01433 0.158303C5.80326 -0.0527677 5.46097 -0.0527677 5.24989 0.158303L4.48546 0.922738C4.27439 1.13381 4.27439 1.4761 4.48546 1.68717Z" fill="#6C7383"/>
<path d="M0.000112534 12.973V18.9189C0.00445938 19.5142 0.485937 19.9957 1.08118 20H22.4326C23.0289 19.9983 23.5119 19.5153 23.5137 18.919C23.5152 18.6322 23.4001 18.3571 23.1948 18.1568C22.9945 17.9515 22.7194 17.8364 22.4326 17.8379H4.86497C7.55176 17.8379 9.72982 15.6599 9.72982 12.9731C9.72982 10.2863 7.55176 8.10822 4.86497 8.10822C2.17818 8.10822 0.000112534 10.2862 0.000112534 12.973Z" fill="#3A3F4D"/>
<path d="M4.86516 15.6758C3.3725 15.6758 2.16245 14.4658 2.16245 12.9731C2.16245 11.4804 3.3725 10.2704 4.86516 10.2704C6.35783 10.2704 7.56787 11.4804 7.56787 12.9731C7.56787 14.4658 6.35783 15.6758 4.86516 15.6758Z" fill="#6C7383"/>
</svg>
