<svg width="18" height="18" viewBox="0 0 18 18" fill="none" xmlns="http://www.w3.org/2000/svg">
<path fill-rule="evenodd" clip-rule="evenodd" d="M8.99999 16.2579C5.00457 16.2579 1.74213 12.9633 1.74213 8.86992C1.74213 5.41894 4.06424 2.53073 7.18813 1.71383C7.65349 1.59213 7.93209 1.11623 7.8104 0.650873C7.6887 0.185514 7.2128 -0.0930848 6.74744 0.0286074C2.85932 1.04536 0.000244141 4.62428 0.000244141 8.86992C0.000244141 13.8991 4.01658 17.9998 8.99999 17.9998C13.9834 17.9998 17.9997 13.8991 17.9997 8.86992C17.9997 8.38891 17.6098 7.99898 17.1288 7.99898C16.6478 7.99898 16.2578 8.38891 16.2578 8.86992C16.2578 12.9633 12.9954 16.2579 8.99999 16.2579ZM14.2256 4.35499C14.2256 5.317 13.4458 6.09687 12.4838 6.09687C11.5217 6.09687 10.7419 5.317 10.7419 4.35499C10.7419 3.39297 11.5217 2.6131 12.4838 2.6131C13.4458 2.6131 14.2256 3.39297 14.2256 4.35499ZM15.9675 4.35499C15.9675 6.27902 14.4078 7.83876 12.4838 7.83876C10.5597 7.83876 8.99999 6.27902 8.99999 4.35499C8.99999 2.43095 10.5597 0.871217 12.4838 0.871217C14.4078 0.871217 15.9675 2.43095 15.9675 4.35499Z" fill="#4791FF"/>
</svg>
