<svg width="20" height="20" viewBox="0 0 20 20" fill="none" xmlns="http://www.w3.org/2000/svg">
<path d="M18.125 18.4375H2.1875C2.10462 18.4375 2.02513 18.4046 1.96653 18.346C1.90792 18.2874 1.875 18.2079 1.875 18.125C1.875 18.0421 1.90792 17.9626 1.96653 17.904C2.02513 17.8454 2.10462 17.8125 2.1875 17.8125H18.125C18.2079 17.8125 18.2874 17.8454 18.346 17.904C18.4046 17.9626 18.4375 18.0421 18.4375 18.125C18.4375 18.2079 18.4046 18.2874 18.346 18.346C18.2874 18.4046 18.2079 18.4375 18.125 18.4375Z" fill="#DADCE7"/>
<path d="M2.8125 17.8125H0.9375L6.5 11.5L6.8125 12.75L2.8125 17.8125Z" fill="#DADCE7"/>
<path d="M6.25 14.0625H5L2.1875 6.875V6.25H3.4375V6.875L6.25 14.0625Z" fill="#DADCE7"/>
<path d="M15.3125 16.25C17.211 16.25 18.75 14.711 18.75 12.8125C18.75 10.914 17.211 9.375 15.3125 9.375C13.414 9.375 11.875 10.914 11.875 12.8125C11.875 14.711 13.414 16.25 15.3125 16.25Z" fill="#6C7383"/>
<path d="M15.3125 16.5625C14.5708 16.5625 13.8458 16.3426 13.2291 15.9305C12.6124 15.5185 12.1318 14.9328 11.848 14.2476C11.5641 13.5623 11.4899 12.8083 11.6346 12.0809C11.7793 11.3535 12.1364 10.6853 12.6608 10.1609C13.1853 9.6364 13.8535 9.27925 14.5809 9.13456C15.3083 8.98986 16.0623 9.06412 16.7476 9.34795C17.4328 9.63178 18.0184 10.1124 18.4305 10.7291C18.8426 11.3458 19.0625 12.0708 19.0625 12.8125C19.0614 13.8067 18.6659 14.7599 17.9629 15.4629C17.2599 16.1659 16.3067 16.5614 15.3125 16.5625ZM15.3125 9.6875C14.6944 9.6875 14.0902 9.87078 13.5763 10.2142C13.0624 10.5575 12.6619 11.0456 12.4254 11.6166C12.1889 12.1876 12.127 12.816 12.2475 13.4222C12.3681 14.0284 12.6658 14.5852 13.1028 15.0222C13.5398 15.4592 14.0966 15.7569 14.7028 15.8775C15.309 15.998 15.9374 15.9361 16.5084 15.6996C17.0794 15.4631 17.5675 15.0626 17.9108 14.5487C18.2542 14.0348 18.4375 13.4306 18.4375 12.8125C18.4365 11.984 18.107 11.1897 17.5212 10.6038C16.9353 10.018 16.141 9.68844 15.3125 9.6875Z" fill="#6C7383"/>
<path d="M16.5625 12.8125C16.5625 13.144 16.4308 13.462 16.1964 13.6964C15.962 13.9308 15.644 14.0625 15.3125 14.0625L5.54609 14.673L5.3125 14.6875C4.81522 14.6875 4.33831 14.49 3.98667 14.1383C3.63504 13.7867 3.4375 13.3098 3.4375 12.8125C3.4375 12.3152 3.63504 11.8383 3.98667 11.4867C4.33831 11.135 4.81522 10.9375 5.3125 10.9375L5.54609 10.952L15.3125 11.5625C15.644 11.5625 15.962 11.6942 16.1964 11.9286C16.4308 12.163 16.5625 12.481 16.5625 12.8125Z" fill="#DADCE7"/>
<path d="M2.1875 17.1875H1.5625C1.21732 17.1875 0.9375 17.4673 0.9375 17.8125V18.4375C0.9375 18.7827 1.21732 19.0625 1.5625 19.0625H2.1875C2.53268 19.0625 2.8125 18.7827 2.8125 18.4375V17.8125C2.8125 17.4673 2.53268 17.1875 2.1875 17.1875Z" fill="#6C7383"/>
<path d="M18.75 17.5H17.5L12.8125 4.375V3.75H14.0625V4.375L18.75 17.5Z" fill="#DADCE7"/>
<path d="M4.6875 6.87489H1.5625C1.39674 6.87489 1.23777 6.80904 1.12056 6.69183C1.00335 6.57462 0.9375 6.41565 0.9375 6.24989V5.72051C0.937501 5.63097 0.956743 5.54247 0.993924 5.46101C1.03111 5.37955 1.08536 5.30703 1.15301 5.24836C1.22065 5.18969 1.30012 5.14624 1.38602 5.12095C1.47192 5.09567 1.56225 5.08914 1.6509 5.1018L4.7759 5.54825C4.92483 5.56953 5.06109 5.64381 5.15966 5.75747C5.25823 5.87112 5.3125 6.01652 5.3125 6.16696V6.24989C5.3125 6.41565 5.24665 6.57462 5.12944 6.69183C5.01223 6.80904 4.85326 6.87489 4.6875 6.87489Z" fill="#6C7383"/>
<path d="M12.1875 3.75C12.1875 3.91576 12.2533 4.07473 12.3706 4.19194C12.4878 4.30915 12.6467 4.375 12.8125 4.375H15C15.663 4.375 16.2989 4.11161 16.7678 3.64277C17.2366 3.17393 17.5 2.53804 17.5 1.875V1.5625C17.5 1.39674 17.4342 1.23777 17.3169 1.12056C17.1997 1.00335 17.0408 0.9375 16.875 0.9375C16.7092 0.9375 16.5503 1.00335 16.4331 1.12056C16.3158 1.23777 16.25 1.39674 16.25 1.5625V1.875C16.25 2.20652 16.1183 2.52446 15.8839 2.75888C15.6495 2.9933 15.3315 3.125 15 3.125H12.8125C12.6467 3.125 12.4878 3.19085 12.3706 3.30806C12.2533 3.42527 12.1875 3.58424 12.1875 3.75Z" fill="#6C7383"/>
<path d="M18.4375 17.1875H17.8125C17.4673 17.1875 17.1875 17.4673 17.1875 17.8125V18.4375C17.1875 18.7827 17.4673 19.0625 17.8125 19.0625H18.4375C18.7827 19.0625 19.0625 18.7827 19.0625 18.4375V17.8125C19.0625 17.4673 18.7827 17.1875 18.4375 17.1875Z" fill="#6C7383"/>
</svg>
