<svg width="15" height="10" viewBox="0 0 15 10" fill="none" xmlns="http://www.w3.org/2000/svg">
<path d="M11.8482 2.30795L11.8482 1.62912C11.8482 1.26143 11.5512 0.964442 11.1835 0.964442L11.1647 0.964443C10.797 0.964443 10.5 1.26143 10.5 1.62912L10.5 4.32556L4.04922 4.32556L4.04922 1.62912C4.04922 1.26143 3.75223 0.964442 3.38454 0.964442H3.36568C2.99799 0.964442 2.701 1.26143 2.701 1.62912L2.701 2.30794L2.02218 2.30794C1.65448 2.30794 1.35278 2.60964 1.35278 2.97734L1.35278 4.32556L0.673962 4.32556C0.306266 4.32556 -0.000146426 4.63197 -0.000146384 4.99966C-0.000146363 5.36736 0.306267 5.67377 0.673962 5.67377L1.35278 5.67377L1.35278 7.02199C1.35278 7.38969 1.64977 7.68667 2.01746 7.68667L2.69629 7.68667L2.701 8.37021C2.701 8.7379 2.99799 9.03489 3.36568 9.03489H3.38454C3.75223 9.03489 4.04922 8.7379 4.04922 8.37021L4.04922 5.67377L10.5 5.67377L10.5 8.37021C10.5 8.7379 10.797 9.03489 11.1647 9.03489H11.1835C11.5512 9.03489 11.8482 8.7379 11.8482 8.37021L11.8482 7.69139L12.527 7.69139C12.8947 7.69139 13.1917 7.3944 13.1917 7.02671V5.67849H13.8705C14.2382 5.67849 14.5447 5.37208 14.5447 5.00438C14.5447 4.63668 14.2382 4.33027 13.8705 4.33027H13.1917L13.1964 2.97734C13.1964 2.60964 12.8995 2.31266 12.5318 2.31266L11.8482 2.30795Z" fill="#AAABC3"/>
</svg>
