<svg width="32" height="32" viewBox="0 0 32 32" fill="none" xmlns="http://www.w3.org/2000/svg">
<rect width="32" height="32" rx="16" fill="#4791FF"/>
<path d="M17.25 10.5833C18.1705 10.5833 18.9167 9.83714 18.9167 8.91667C18.9167 7.99619 18.1705 7.25 17.25 7.25C16.3295 7.25 15.5833 7.99619 15.5833 8.91667C15.5833 9.83714 16.3295 10.5833 17.25 10.5833Z" fill="white"/>
<path d="M21.8334 15.925C21.8334 15.5167 21.5334 15.175 21.1334 15.1083C19.8584 14.9 18.8084 14.1417 18.2418 13.15L17.4084 11.8333C17.0751 11.3333 16.5751 11 15.9918 11C15.4251 11 14.9251 11.2333 12.0168 12.4667C11.4084 12.725 11.0001 13.3333 11.0001 14V16C11.0001 16.4583 11.3751 16.8333 11.8334 16.8333C12.2918 16.8333 12.6668 16.4583 12.6668 16V13.9833L14.1584 13.4L12.8251 20.15L9.66677 19.4917C9.20844 19.3917 8.75844 19.6917 8.65844 20.1583C8.56677 20.6167 8.86677 21.0583 9.31677 21.1583L12.6334 21.8333C13.5168 22.0167 14.3918 21.45 14.5918 20.5667L15.0668 18.4917L16.8251 20.1583V24.3333C16.8251 24.7917 17.2001 25.1667 17.6584 25.1667C18.1168 25.1667 18.4918 24.7917 18.4918 24.3333V19.6167C18.4918 19.1583 18.3001 18.725 17.9751 18.4083L16.7334 17.2333L17.2334 14.7333C18.1744 15.812 19.4624 16.5282 20.8751 16.7583C21.3834 16.8417 21.8334 16.4333 21.8334 15.925Z" fill="white"/>
</svg>
