<svg width="16" height="14" viewBox="0 0 16 14" fill="none" xmlns="http://www.w3.org/2000/svg">
<path d="M3.29585 5.71348C3.49107 4.48644 5.02487 3.17574 6.22402 3.14786C6.30768 3.14786 6.39134 3.11997 6.44712 3.06419C6.50289 3.03631 6.55867 3.00842 6.58655 2.92476C7.00486 2.14391 6.78176 1.53039 6.08458 1.02842C5.27585 0.442791 3.99304 1.02842 3.35163 1.55828C1.73417 2.89687 0.0888197 5.21147 0.172481 7.41461C-0.106391 8.89268 -0.0506167 10.4822 0.367692 11.7929C0.646565 12.6295 1.4553 13.0478 2.29191 13.1036C3.12853 13.1594 4.85754 13.4104 5.6105 12.9084C6.36345 12.4064 6.41923 11.4304 6.50289 10.5938C6.58655 9.67352 6.83754 7.94447 6.05669 7.2194C5.27585 6.52222 3.04487 7.27517 3.29585 5.71348Z" fill="white"/>
<path d="M12.4987 5.71348C12.6939 4.48644 14.2276 3.17574 15.4268 3.14786C15.5105 3.14786 15.5942 3.11997 15.6499 3.06419C15.7058 3.03631 15.7615 3.00842 15.7894 2.92476C16.2077 2.14391 15.9846 1.53039 15.2875 1.02842C14.4787 0.442791 13.1959 1.02842 12.5545 1.55828C10.937 2.89687 9.29164 5.21151 9.3753 7.41461C9.09643 8.89268 9.15221 10.4822 9.57047 11.7929C9.84934 12.6295 10.6581 13.0478 11.4947 13.1036C12.3314 13.1594 14.0604 13.4104 14.8133 12.9084C15.5662 12.4064 15.6221 11.4304 15.7057 10.5938C15.7894 9.67352 16.0404 7.94447 15.2595 7.2194C14.4787 6.52222 12.2198 7.27517 12.4987 5.71348Z" fill="white"/>
</svg>
