<svg width="74" height="78" viewBox="0 0 74 78" fill="none" xmlns="http://www.w3.org/2000/svg">
<path fill-rule="evenodd" clip-rule="evenodd" d="M30.2948 1.08463C28.0207 1.70112 25.1157 2.72729 23.8392 3.36588C20.6361 4.96661 16.1874 8.00884 16.1862 8.59927C16.1851 9.03898 18.3548 8.81062 21.5814 8.03094C22.6401 7.77482 22.9668 8.32729 24.62 13.1691C25.6389 16.153 26.6926 18.5941 26.9609 18.5941C27.2298 18.5941 28.7673 17.8965 30.3778 17.0443C32.9663 15.6742 35.9349 14.8232 38.6393 14.9195C41.3437 15.0157 44.3062 15.6504 47.0596 17.0766C49.9708 18.5838 53.2345 21.1915 53.2345 22.0097C53.2345 22.2137 51.9715 23.0744 50.4277 23.9221C47.5486 25.5041 46.8665 26.4934 48.6033 26.5705C49.1439 26.5943 49.9646 26.7008 50.4277 26.8073C53.1823 27.4425 67.0163 29.7997 67.1578 29.6586C67.5659 29.2507 73.4433 12.2863 73.4433 11.5157C73.4433 10.3796 73.3759 10.3966 70.0752 12.3611C68.5045 13.2961 67.1297 14.061 67.0208 14.061C66.9125 14.061 65.092 12.3305 62.9757 10.2153C54.3314 1.5742 41.6055 -1.9814 30.2948 1.08463ZM9.20917 14.5608C4.60101 15.3949 0.749555 16.3253 0.650757 16.6278C0.551958 16.9299 1.85991 17.9334 3.55689 18.8575C5.25386 19.7817 6.64209 20.8101 6.64209 21.1439C6.64209 21.4771 6.09702 23.271 5.43125 25.1301C4.48593 27.7684 4.20862 29.8779 4.1682 34.743C4.11263 41.3765 5.08041 45.552 8.03762 51.4433C11.0532 57.4495 17.2831 63.5878 23.3076 66.4884C27.8018 68.6524 28.4496 68.3271 25.768 65.2526C23.7937 62.9883 23.5725 62.4857 24.2074 61.7112C24.6139 61.2142 26.303 59.1925 27.9601 57.2184C31.18 53.384 31.1817 53.5387 27.8978 51.7402C25.7742 50.5775 22.1102 46.1951 20.6636 43.0895C19.981 41.6236 19.2933 38.982 19.1345 37.2186C18.7898 33.3797 19.3848 28.7934 20.2274 28.7934C20.5603 28.7934 22.0356 29.5408 23.5063 30.4542C24.9771 31.3676 26.2884 32.005 26.4214 31.8713C26.6752 31.6152 23.1701 20.9722 21.1627 15.9026C19.7733 12.3951 20.6355 12.492 9.20917 14.5608ZM71.1193 31.4146C70.6994 32.8561 70.0314 34.1616 69.6345 34.3158C69.2376 34.4699 66.675 34.1832 63.9401 33.6783C61.2052 33.1729 58.8486 32.7598 58.7027 32.7598C58.5567 32.7598 58.312 34.535 58.1582 36.7041C57.7882 41.9239 55.7876 46.0099 51.8025 49.6867C50.0471 51.3061 47.4773 52.9902 45.7926 53.6259L42.8495 54.7365L42.6833 51.1141C42.5924 49.1224 42.2971 47.4922 42.0276 47.4922C41.1351 47.4922 28.979 62.2342 29.2854 62.9447C29.7098 63.9284 41.4635 77.7666 42.0692 77.9955C42.3442 78.0998 42.5688 76.3704 42.5688 74.1532C42.5688 71.4068 42.7922 70.0616 43.2705 69.933C54.0092 67.0426 56.8502 65.6549 62.2381 60.668C68.4405 54.9269 72.3183 46.9057 73.1856 38.0204C73.5993 33.7826 73.1463 28.7934 72.3481 28.7934C72.0927 28.7934 71.5397 29.9731 71.1193 31.4146Z" fill="url(#paint0_linear_13756_37721)"/>
<defs>
<linearGradient id="paint0_linear_13756_37721" x1="0.645508" y1="39" x2="73.4433" y2="39" gradientUnits="userSpaceOnUse">
<stop stop-color="#4791FF"/>
<stop offset="1" stop-color="#335BEA"/>
</linearGradient>
</defs>
</svg>
