<svg width="24" height="24" viewBox="0 0 24 24" fill="none" xmlns="http://www.w3.org/2000/svg">
<g filter="url(#filter0_b)">
<rect width="24" height="24" rx="12" fill="#3D3D3D" fill-opacity="0.7"/>
</g>
<path fill-rule="evenodd" clip-rule="evenodd" d="M9.52513 5.52513C8.86875 6.1815 8.5 7.07174 8.5 8V10C7.96957 10 7.46086 10.1873 7.08579 10.5207C6.71071 10.8541 6.5 11.3063 6.5 11.7778V16.2222C6.5 16.6937 6.71071 17.1459 7.08579 17.4793C7.46086 17.8127 7.96957 18 8.5 18H15.5C16.0304 18 16.5391 17.8127 16.9142 17.4793C17.2893 17.1459 17.5 16.6937 17.5 16.2222V11.7778C17.5 11.3063 17.2893 10.8541 16.9142 10.5207C16.5391 10.1873 16.0304 10 15.5 10V8C15.5 7.07174 15.1313 6.1815 14.4749 5.52513C13.8185 4.86875 12.9283 4.5 12 4.5C11.0717 4.5 10.1815 4.86875 9.52513 5.52513ZM14.5 10V8C14.5 7.33696 14.2366 6.70107 13.7678 6.23223C13.2989 5.76339 12.663 5.5 12 5.5C11.337 5.5 10.7011 5.76339 10.2322 6.23223C9.76339 6.70107 9.5 7.33696 9.5 8V10H14.5ZM11 13C11 12.4477 11.4477 12 12 12C12.5523 12 13 12.4477 13 13V15C13 15.5523 12.5523 16 12 16C11.4477 16 11 15.5523 11 15V13Z" fill="#E3FF39"/>
<defs>
<filter id="filter0_b" x="-4" y="-4" width="32" height="32" filterUnits="userSpaceOnUse" color-interpolation-filters="sRGB">
<feFlood flood-opacity="0" result="BackgroundImageFix"/>
<feGaussianBlur in="BackgroundImage" stdDeviation="2"/>
<feComposite in2="SourceAlpha" operator="in" result="effect1_backgroundBlur"/>
<feBlend mode="normal" in="SourceGraphic" in2="effect1_backgroundBlur" result="shape"/>
</filter>
</defs>
</svg>
