<svg width="16" height="20" viewBox="0 0 16 20" fill="none" xmlns="http://www.w3.org/2000/svg">
<path d="M7.51334 0.0477574C7.28302 -0.0386135 7.02498 -0.00655143 6.8228 0.13356C6.62062 0.273672 6.5 0.50402 6.5 0.750004V12.8773C5.8152 12.3284 4.94595 12 4 12C1.79086 12 0 13.7909 0 16C0 18.2091 1.79086 20 4 20C6.06126 20 7.75836 18.4409 7.97634 16.4376C7.99178 16.3776 8 16.3148 8 16.25V6.83225L14.9867 9.45225C15.217 9.53862 15.475 9.50656 15.6772 9.36645C15.8794 9.22634 16 8.99599 16 8.75V5.48251C16 4.12776 15.1596 2.91512 13.8912 2.43944L7.51334 0.0477574ZM6.5 16C6.5 17.3807 5.38071 18.5 4 18.5C2.61929 18.5 1.5 17.3807 1.5 16C1.5 14.6193 2.61929 13.5 4 13.5C5.38071 13.5 6.5 14.6193 6.5 16ZM14.5 7.66775L8 5.23025V1.83225L13.3645 3.84393C14.0475 4.10007 14.5 4.75303 14.5 5.48251V7.66775Z" fill="white"/>
</svg>
