<svg width="42" height="42" viewBox="0 0 42 42" fill="none" xmlns="http://www.w3.org/2000/svg">
<path d="M32.8125 12.1406L31.08 10.1251C29.611 8.58226 27.8435 7.35441 25.885 6.5163C23.9264 5.67819 21.8178 5.24736 19.6875 5.25001C10.9922 5.25001 3.9375 12.3047 3.9375 21C3.9375 29.6953 10.9922 36.75 19.6875 36.75C22.945 36.7498 26.1223 35.74 28.7823 33.8597C31.4422 31.9793 33.4541 29.3208 34.5409 26.25" stroke="#DADCE7" stroke-width="3" stroke-miterlimit="10" stroke-linecap="round"/>
<path d="M38.0625 7.99148V17.0625C38.0625 17.4106 37.9242 17.7444 37.6781 17.9906C37.4319 18.2367 37.0981 18.375 36.75 18.375H27.679C26.5092 18.375 25.9235 16.9616 26.7504 16.1347L35.8222 7.06288C36.6491 6.23437 38.0625 6.82171 38.0625 7.99148Z" fill="#DADCE7"/>
</svg>
