<svg width="32" height="32" viewBox="0 0 32 32" fill="none" xmlns="http://www.w3.org/2000/svg">
<rect width="32" height="32" rx="16" fill="#9D61FF"/>
<path fill-rule="evenodd" clip-rule="evenodd" d="M12.3145 9.50613C12.0417 9.1944 11.5679 9.16282 11.2561 9.43558C10.9444 9.70834 10.9128 10.1822 11.1856 10.4939L16.0034 16L11.1856 21.5061C10.9128 21.8179 10.9444 22.2917 11.2561 22.5644C11.5679 22.8372 12.0417 22.8056 12.3145 22.4939L17.5645 16.4939C17.8119 16.2111 17.8119 15.7889 17.5645 15.5061L12.3145 9.50613ZM18.3144 9.50613C18.0417 9.1944 17.5678 9.16282 17.2561 9.43558C16.9444 9.70834 16.9128 10.1822 17.1856 10.4939L22.0034 16L17.1856 21.5061C16.9128 21.8179 16.9444 22.2917 17.2561 22.5644C17.5678 22.8372 18.0417 22.8056 18.3144 22.4939L23.5644 16.4939C23.8118 16.2111 23.8118 15.7889 23.5644 15.5061L18.3144 9.50613Z" fill="white"/>
</svg>
