<svg width="32" height="32" viewBox="0 0 32 32" fill="none" xmlns="http://www.w3.org/2000/svg">
<rect width="32" height="32" rx="16" fill="#E3FF39"/>
<g clip-path="url(#clip0)">
<path d="M19.251 8.06795C19.3489 8.12469 19.4246 8.21294 19.4658 8.31829C19.5071 8.42364 19.5114 8.53985 19.478 8.64795L17.677 14.5H21C21.0977 14.4999 21.1932 14.5285 21.2748 14.5821C21.3564 14.6357 21.4205 14.7121 21.4592 14.8017C21.4979 14.8914 21.5096 14.9904 21.4926 15.0866C21.4757 15.1828 21.431 15.2719 21.364 15.343L13.364 23.843C13.2866 23.9253 13.1836 23.9789 13.0718 23.9952C12.96 24.0115 12.8459 23.9894 12.7483 23.9326C12.6506 23.8757 12.5751 23.7875 12.534 23.6822C12.4929 23.577 12.4887 23.4609 12.522 23.353L14.323 17.5H11C10.9023 17.5 10.8068 17.4714 10.7252 17.4178C10.6436 17.3642 10.5795 17.2878 10.5408 17.1982C10.5021 17.1085 10.4904 17.0095 10.5074 16.9133C10.5243 16.8171 10.569 16.728 10.636 16.657L18.636 8.15695C18.7133 8.07475 18.8162 8.02112 18.9278 8.00478C19.0395 7.98844 19.1534 8.01035 19.251 8.06695V8.06795Z" fill="black"/>
</g>
<defs>
<clipPath id="clip0">
<rect width="16" height="16" fill="white" transform="translate(8 8)"/>
</clipPath>
</defs>
</svg>
